<?xml version="1.0" encoding="UTF-8"?>
<svg xmlns="http://www.w3.org/2000/svg" width="31" height="32" viewBox="0 0 31 32" fill="none">
  <path d="M6.17895 26.728V28.108H7.37895C7.35495 28.624 7.31895 28.84 7.23495 29.044C7.05495 29.464 6.73095 29.692 6.28695 29.692C5.33895 29.692 4.93095 28.876 4.93095 27.028C4.93095 25.168 5.35095 24.304 6.22695 24.304C6.61095 24.304 6.91095 24.484 7.10295 24.82C7.23495 25.048 7.30695 25.324 7.37895 25.876L8.96295 25.612C8.71095 23.704 7.88295 22.876 6.20295 22.876C5.44695 22.876 4.82295 23.08 4.34295 23.5C3.52695 24.208 3.08295 25.48 3.08295 27.1C3.08295 29.584 4.22295 31.12 6.04695 31.12C6.91095 31.12 7.52295 30.796 7.99095 30.088L8.21895 31H8.96295V26.728H6.17895ZM10.3322 22.996V27.568C10.3322 29.116 10.4642 29.764 10.8722 30.304C11.2922 30.832 12.0602 31.12 13.0682 31.12C13.9802 31.12 14.6882 30.856 15.1562 30.352C15.6482 29.824 15.7682 29.26 15.7682 27.496V22.996H14.2922V27.568C14.2922 28.612 14.2802 28.828 14.1722 29.092C14.0282 29.488 13.7042 29.692 13.2242 29.692C12.7322 29.692 12.3962 29.488 12.2282 29.092C12.1202 28.84 12.0842 28.444 12.0842 27.568V22.996H10.3322ZM17.2814 22.996V31H21.6134V29.5H19.0334V22.996H17.2814ZM22.3908 22.996V31H24.4908C25.5708 31 26.0028 30.892 26.5548 30.52C27.4548 29.908 27.9708 28.6 27.9708 26.932C27.9708 25.384 27.5388 24.184 26.7468 23.608C26.1588 23.164 25.4628 22.996 24.2748 22.996H22.3908ZM24.1428 24.376H24.4428C25.0428 24.376 25.3188 24.472 25.5948 24.796C25.9428 25.204 26.1108 25.864 26.1108 26.908C26.1108 27.952 25.9668 28.672 25.6668 29.092C25.3788 29.5 25.0788 29.62 24.4428 29.62H24.1428V24.376Z" fill="#C29D25"></path>
  <path d="M0.464844 9.49414V18.0376H0.481241L7.10979 9.49414H0.464844Z" fill="#C29D25"></path>
  <path d="M0.481241 0H0.464844V8.5435H7.10979L0.481241 0Z" fill="#C29D25"></path>
  <path d="M15.6567 18.0376L22.3016 9.49414H9.01172L15.6567 18.0376Z" fill="#C29D25"></path>
  <path d="M30.9881 18.0376H31.0004V9.49414H24.3555L30.9881 18.0376Z" fill="#C29D25"></path>
  <path d="M31.0004 8.5435V0H30.9881L24.3555 8.5435H31.0004Z" fill="#C29D25"></path>
  <path d="M15.6567 0L9.01172 8.5435H22.3016L15.6567 0Z" fill="#C29D25"></path>
  <path d="M16.918 18.0376H29.7332L23.3256 9.81055L16.918 18.0376Z" fill="#C29D25"></path>
  <path d="M1.73047 18.0376H14.5457L8.13605 9.81055L1.73047 18.0376Z" fill="#C29D25"></path>
</svg>
